<svg width="368" height="465" viewBox="0 0 368 465" fill="none" xmlns="http://www.w3.org/2000/svg">
<g opacity="0.1" clip-path="url(#clip0_1108_6878)">
<g opacity="0.35">
<path d="M338 228.14C338 232.426 335.714 236.387 332.002 238.531L5.93642 426.887C2.22237 429.033 -2.3544 429.033 -6.06845 426.887L-332.134 238.531C-335.846 236.387 -338.132 232.426 -338.132 228.14V-148.613C-338.132 -152.899 -335.846 -156.859 -332.134 -159.003L-6.06846 -347.36C-2.3544 -349.506 2.22238 -349.506 5.93645 -347.36L332.002 -159.003C335.714 -156.859 338 -152.899 338 -148.613V228.14Z" stroke="#4D58EA" stroke-width="60"/>
<path d="M215.629 157.25C215.629 161.539 213.34 165.502 209.626 167.645L5.93258 285.16C2.22146 287.301 -2.34964 287.301 -6.06075 285.16L-209.753 167.645C-213.467 165.502 -215.756 161.539 -215.756 157.25V-77.7251C-215.756 -82.0137 -213.467 -85.9763 -209.753 -88.1193L-6.06075 -205.634C-2.34964 -207.775 2.22146 -207.775 5.93259 -205.634L209.626 -88.1193C213.34 -85.9763 215.629 -82.0137 215.629 -77.7251V157.25Z" stroke="#4D58EA" stroke-width="60"/>
<path d="M92.7891 86.3773C92.7891 90.6659 90.5004 94.6284 86.7857 96.7715L5.93972 143.413C2.2286 145.554 -2.34249 145.554 -6.05361 143.413L-86.8996 96.7715C-90.6143 94.6284 -92.903 90.6659 -92.903 86.3773V-6.85317C-92.903 -11.1417 -90.6143 -15.1043 -86.8996 -17.2474L-6.05362 -63.8893C-2.3425 -66.0303 2.2286 -66.0304 5.93972 -63.8893L86.7857 -17.2474C90.5004 -15.1043 92.7891 -11.1417 92.7891 -6.85317V86.3773Z" stroke="#4D58EA" stroke-width="60"/>
</g>
</g>
<defs>
<clipPath id="clip0_1108_6878">
<rect width="368" height="465" fill="white" transform="matrix(-1 0 0 -1 368 465)"/>
</clipPath>
</defs>
</svg>
